<svg xmlns="http://www.w3.org/2000/svg" viewBox="0 0 64 64" width="64" height="64" shape-rendering="crispEdges"><rect width="64" height="64" rx="12" fill="#ffffff"/><rect x="1.5" y="1.5" width="61" height="61" rx="10" fill="none" stroke="#000000" stroke-width="3"/><rect x="14.5" y="7.5" width="3.5" height="3.5" fill="#000000"/><rect x="14.5" y="11" width="3.5" height="3.5" fill="#000000"/><rect x="18" y="11" width="3.5" height="3.5" fill="#000000"/><rect x="14.5" y="14.5" width="3.5" height="3.5" fill="#000000"/><rect x="18" y="14.5" width="3.5" height="3.5" fill="#000000"/><rect x="21.5" y="14.5" width="3.5" height="3.5" fill="#000000"/><rect x="14.5" y="18" width="3.5" height="3.5" fill="#000000"/><rect x="18" y="18" width="3.5" height="3.5" fill="#000000"/><rect x="21.5" y="18" width="3.5" height="3.5" fill="#000000"/><rect x="25" y="18" width="3.5" height="3.5" fill="#000000"/><rect x="14.5" y="21.5" width="3.5" height="3.5" fill="#000000"/><rect x="18" y="21.5" width="3.5" height="3.5" fill="#000000"/><rect x="21.5" y="21.5" width="3.5" height="3.5" fill="#000000"/><rect x="25" y="21.5" width="3.5" height="3.5" fill="#000000"/><rect x="28.5" y="21.5" width="3.5" height="3.5" fill="#000000"/><rect x="14.5" y="25" width="3.5" height="3.5" fill="#000000"/><rect x="18" y="25" width="3.5" height="3.5" fill="#000000"/><rect x="21.5" y="25" width="3.5" height="3.5" fill="#000000"/><rect x="25" y="25" width="3.5" height="3.5" fill="#000000"/><rect x="28.5" y="25" width="3.5" height="3.5" fill="#000000"/><rect x="32" y="25" width="3.5" height="3.5" fill="#000000"/><rect x="14.5" y="28.5" width="3.5" height="3.5" fill="#000000"/><rect x="18" y="28.5" width="3.5" height="3.5" fill="#000000"/><rect x="21.5" y="28.5" width="3.5" height="3.5" fill="#000000"/><rect x="21.5" y="32" width="3.5" height="3.5" fill="#000000"/><rect x="25" y="32" width="3.5" height="3.5" fill="#000000"/><rect x="25" y="35.5" width="3.5" height="3.5" fill="#000000"/><rect x="39" y="35.5" width="3.5" height="3.5" fill="#f59e0b"/><rect x="49.5" y="35.5" width="3.5" height="3.5" fill="#f59e0b"/><rect x="39" y="39" width="3.5" height="3.5" fill="#f59e0b"/><rect x="42.5" y="39" width="3.5" height="3.5" fill="#f59e0b"/><rect x="46" y="39" width="3.5" height="3.5" fill="#f59e0b"/><rect x="49.5" y="39" width="3.5" height="3.5" fill="#f59e0b"/><rect x="39" y="42.5" width="3.5" height="3.5" fill="#f59e0b"/><rect x="46" y="42.5" width="3.5" height="3.5" fill="#f59e0b"/><rect x="49.5" y="42.5" width="3.5" height="3.5" fill="#f59e0b"/><rect x="39" y="46" width="3.5" height="3.5" fill="#f59e0b"/><rect x="42.5" y="46" width="3.5" height="3.5" fill="#f59e0b"/><rect x="46" y="46" width="3.5" height="3.5" fill="#f59e0b"/><rect x="49.5" y="46" width="3.5" height="3.5" fill="#f59e0b"/><rect x="39" y="49.5" width="3.5" height="3.5" fill="#f59e0b"/><rect x="46" y="49.5" width="3.5" height="3.5" fill="#f59e0b"/><rect x="42.5" y="42.5" width="3.5" height="3.5" fill="#000000"/><rect x="53" y="53" width="3.5" height="3.5" fill="#000000"/></svg>