<svg xmlns="http://www.w3.org/2000/svg" viewBox="0 0 64 64" width="64" height="64" shape-rendering="crispEdges"><rect width="64" height="64" rx="12" fill="#181208"/><rect x="13.25" y="5.75" width="3.75" height="3.75" fill="#f4e9d3"/><rect x="13.25" y="9.5" width="3.75" height="3.75" fill="#f4e9d3"/><rect x="17" y="9.5" width="3.75" height="3.75" fill="#f4e9d3"/><rect x="13.25" y="13.25" width="3.75" height="3.75" fill="#f4e9d3"/><rect x="17" y="13.25" width="3.75" height="3.75" fill="#f4e9d3"/><rect x="20.75" y="13.25" width="3.75" height="3.75" fill="#f4e9d3"/><rect x="13.25" y="17" width="3.75" height="3.75" fill="#f4e9d3"/><rect x="17" y="17" width="3.75" height="3.75" fill="#f4e9d3"/><rect x="20.75" y="17" width="3.75" height="3.75" fill="#f4e9d3"/><rect x="24.5" y="17" width="3.75" height="3.75" fill="#f4e9d3"/><rect x="13.25" y="20.75" width="3.75" height="3.75" fill="#f4e9d3"/><rect x="17" y="20.75" width="3.75" height="3.75" fill="#f4e9d3"/><rect x="20.75" y="20.75" width="3.75" height="3.75" fill="#f4e9d3"/><rect x="24.5" y="20.75" width="3.75" height="3.75" fill="#f4e9d3"/><rect x="28.25" y="20.75" width="3.75" height="3.75" fill="#f4e9d3"/><rect x="13.25" y="24.5" width="3.75" height="3.75" fill="#f4e9d3"/><rect x="17" y="24.5" width="3.75" height="3.75" fill="#f4e9d3"/><rect x="20.75" y="24.5" width="3.75" height="3.75" fill="#f4e9d3"/><rect x="24.5" y="24.5" width="3.75" height="3.75" fill="#f4e9d3"/><rect x="28.25" y="24.5" width="3.75" height="3.75" fill="#f4e9d3"/><rect x="32" y="24.5" width="3.75" height="3.75" fill="#f4e9d3"/><rect x="13.25" y="28.25" width="3.75" height="3.75" fill="#f4e9d3"/><rect x="17" y="28.25" width="3.75" height="3.75" fill="#f4e9d3"/><rect x="20.75" y="28.25" width="3.75" height="3.75" fill="#f4e9d3"/><rect x="20.75" y="32" width="3.75" height="3.75" fill="#f4e9d3"/><rect x="24.5" y="32" width="3.75" height="3.75" fill="#f4e9d3"/><rect x="24.5" y="35.75" width="3.75" height="3.75" fill="#f4e9d3"/><rect x="39.5" y="35.75" width="3.75" height="3.75" fill="#ffb347"/><rect x="50.75" y="35.75" width="3.75" height="3.75" fill="#ffb347"/><rect x="39.5" y="39.5" width="3.75" height="3.75" fill="#ffb347"/><rect x="43.25" y="39.5" width="3.75" height="3.75" fill="#ffb347"/><rect x="47" y="39.5" width="3.75" height="3.75" fill="#ffb347"/><rect x="50.75" y="39.5" width="3.75" height="3.75" fill="#ffb347"/><rect x="39.5" y="43.25" width="3.75" height="3.75" fill="#ffb347"/><rect x="47" y="43.25" width="3.75" height="3.75" fill="#ffb347"/><rect x="50.75" y="43.25" width="3.75" height="3.75" fill="#ffb347"/><rect x="39.5" y="47" width="3.75" height="3.75" fill="#ffb347"/><rect x="43.25" y="47" width="3.75" height="3.75" fill="#ffb347"/><rect x="47" y="47" width="3.75" height="3.75" fill="#ffb347"/><rect x="50.75" y="47" width="3.75" height="3.75" fill="#ffb347"/><rect x="39.5" y="50.75" width="3.75" height="3.75" fill="#ffb347"/><rect x="47" y="50.75" width="3.75" height="3.75" fill="#ffb347"/><rect x="43.25" y="43.25" width="3.75" height="3.75" fill="#181208"/><rect x="54.5" y="54.5" width="3.75" height="3.75" fill="#b3a384"/></svg>